<svg xmlns="http://www.w3.org/2000/svg" xmlns:xlink="http://www.w3.org/1999/xlink" width="234" height="98" viewBox="0 0 234 98">
  <defs>
    <filter id="Rect치ngulo_1368" x="0" y="0" width="234" height="98" filterUnits="userSpaceOnUse">
      <feOffset dy="3" input="SourceAlpha"/>
      <feGaussianBlur stdDeviation="3" result="blur"/>
      <feFlood flood-color="#add0fc"/>
      <feComposite operator="in" in2="blur"/>
      <feComposite in="SourceGraphic"/>
    </filter>
  </defs>
  <g id="Grupo_1535" data-name="Grupo 1535" transform="translate(-365 -506)">
    <g transform="matrix(1, 0, 0, 1, 365, 506)" filter="url(#Rect치ngulo_1368)">
      <rect id="Rect치ngulo_1368-2" data-name="Rect치ngulo 1368" width="216" height="80" rx="10" transform="translate(9 6)" fill="#f4f8fd"/>
    </g>
    <g id="Grupo_185" data-name="Grupo 185" transform="translate(402 542)">
      <path id="Trazado_240" data-name="Trazado 240" d="M36.774,13.434a2.633,2.633,0,0,0-.816-1.03,7.562,7.562,0,0,0-1.906-1.1,21.422,21.422,0,0,0-5.638-1.4c-1.172-.142-2.356-.233-3.536-.3a37.125,37.125,0,0,0-4.919.074,33.044,33.044,0,0,0-3.891.52A18.219,18.219,0,0,0,11.814,11.5a6,6,0,0,0-1.82,1.23,1.717,1.717,0,0,0-.006,2.6,5.806,5.806,0,0,0,1.063.834,12.23,12.23,0,0,0,3.3,1.323,27.367,27.367,0,0,0,3.694.721c.478.061.958.108,1.452.161q1.19-3.7,2.37-7.37A.1.1,0,0,0,21.9,11c.128,2.494.256,4.987.386,7.5.173.008.322.023.472.02.969-.023,1.939-.037,2.905-.083a31.064,31.064,0,0,0,4.42-.527,18.95,18.95,0,0,0,4.174-1.229,6.016,6.016,0,0,0,2.09-1.385,1.691,1.691,0,0,0,.427-1.865" transform="translate(-6.019 -9.549)" fill="#ed3247" fill-rule="evenodd"/>
      <path id="Trazado_241" data-name="Trazado 241" d="M18.752,19.309a32.56,32.56,0,0,0-5.1.5,19.649,19.649,0,0,0-4.693,1.408,7.119,7.119,0,0,0-2.479,1.73,2.31,2.31,0,0,0-.567,2.35A3.7,3.7,0,0,0,7.332,27.04a12.094,12.094,0,0,0,3.618,1.7,25.309,25.309,0,0,0,4.134.879c.219.029.439.052.659.072,1.114-3.468,2.222-6.92,3.338-10.384-.127,0-.229,0-.33,0" transform="translate(-5.793 -10.159)" fill="#ed3247" fill-rule="evenodd"/>
      <path id="Trazado_242" data-name="Trazado 242" d="M32.247,21.77A14.829,14.829,0,0,0,28.284,20.2a28.217,28.217,0,0,0-4.085-.718c-.334-.037-.667-.058-1.023-.086.179,3.467.354,6.906.532,10.359a1.709,1.709,0,0,0,.272,0c.848-.114,1.7-.212,2.541-.355a19.372,19.372,0,0,0,4.419-1.281,7.774,7.774,0,0,0,2.689-1.774,2.337,2.337,0,0,0,.275-3.122,5.26,5.26,0,0,0-1.656-1.452" transform="translate(-6.881 -10.165)" fill="#ed3247" fill-rule="evenodd"/>
      <path id="Trazado_243" data-name="Trazado 243" d="M58.294,20.752a2.072,2.072,0,0,0,1.67-2.167v-1.57c0-1.741-1.017-2.625-3.023-2.625H45.8V27.509H56.143c2.6,0,3.92-.891,3.92-2.65V23.215a2.318,2.318,0,0,0-1.77-2.463m-9.287,1.179H55.7a2.076,2.076,0,0,1,.974.153.944.944,0,0,1,.336.858v.971a.94.94,0,0,1-.332.854,2.138,2.138,0,0,1-.978.157H49.007Zm7.923-3.173c0,.2,0,.787-1.235.787H49.007v-2.8H55.7c1.235,0,1.235.592,1.235.787Z" transform="translate(-8.297 -9.852)" fill="#ed3247"/>
      <path id="Trazado_244" data-name="Trazado 244" d="M73.3,14.39H70.254L62.83,27.509h3.3L67.624,24.7h7.983l1.544,2.814h3.674L73.339,14.458Zm.918,7.72H69.04L71.676,17.3Z" transform="translate(-9.362 -9.852)" fill="#ed3247"/>
      <path id="Trazado_245" data-name="Trazado 245" d="M96.617,21.273c0,.256.034.876.1,1.843-.316-.328-.726-.7-1.222-1.124l-9.041-7.57-.037-.032H84.19V27.509h2.959V20.426c0-.444-.03-1-.087-1.652a9.675,9.675,0,0,0,.812.758l9.438,7.944.038.032h2.226V14.39H96.617v6.883Z" transform="translate(-10.699 -9.852)" fill="#ed3247"/>
      <path id="Trazado_246" data-name="Trazado 246" d="M117.4,14.39h-9.463a3.849,3.849,0,0,0-2.607.658,3.363,3.363,0,0,0-.716,2.514v6.774a3.36,3.36,0,0,0,.716,2.514,3.85,3.85,0,0,0,2.607.659H117.4A3.841,3.841,0,0,0,120,26.85a3.356,3.356,0,0,0,.716-2.514V17.562a3.362,3.362,0,0,0-.715-2.514,3.853,3.853,0,0,0-2.606-.658m.064,10.434h-9.592V16.951h9.592Z" transform="translate(-11.977 -9.852)" fill="#ed3247"/>
      <path id="Trazado_247" data-name="Trazado 247" d="M137.049,22.653c2.01,0,3.027-.883,3.027-2.626V17.015c0-1.741-1.017-2.625-3.027-2.625H125.9V27.509h3.209V22.653h2.65l5.144,4.819.039.037h4.716l-5.933-4.856Zm-7.936-5.8H135.7a2.073,2.073,0,0,1,.9.13.815.815,0,0,1,.311.763V19.3a.813.813,0,0,1-.307.759,2.012,2.012,0,0,1-.907.134h-6.588Z" transform="translate(-13.309 -9.852)" fill="#ed3247"/>
      <path id="Trazado_248" data-name="Trazado 248" d="M143.666,16.951h5.9V27.509h3.258V16.951h5.926V14.39H143.666Z" transform="translate(-14.421 -9.852)" fill="#ed3247"/>
      <path id="Trazado_249" data-name="Trazado 249" d="M165.767,24.824V21.906h6.093V19.446h-6.093V16.851h9.927V14.39H162.51V27.509h13.309V24.824Z" transform="translate(-15.6 -9.852)" fill="#ed3247"/>
    </g>
  </g>
</svg>
