<svg xmlns="http://www.w3.org/2000/svg" xmlns:xlink="http://www.w3.org/1999/xlink" width="234" height="98" viewBox="0 0 234 98">
  <defs>
    <filter id="Rect치ngulo_1374" x="0" y="0" width="234" height="98" filterUnits="userSpaceOnUse">
      <feOffset dy="3" input="SourceAlpha"/>
      <feGaussianBlur stdDeviation="3" result="blur"/>
      <feFlood flood-color="#add0fc"/>
      <feComposite operator="in" in2="blur"/>
      <feComposite in="SourceGraphic"/>
    </filter>
  </defs>
  <g id="Grupo_1536" data-name="Grupo 1536" transform="translate(-426 -416)">
    <g transform="matrix(1, 0, 0, 1, 426, 416)" filter="url(#Rect치ngulo_1374)">
      <rect id="Rect치ngulo_1374-2" data-name="Rect치ngulo 1374" width="216" height="80" rx="10" transform="translate(9 6)" fill="#f4f8fd"/>
    </g>
    <g id="Grupo_186" data-name="Grupo 186" transform="translate(460 449)">
      <g id="Grupo_187" data-name="Grupo 187" transform="translate(0)">
        <path id="Trazado_250" data-name="Trazado 250" d="M179.6,21.935c-.773-.255-1.6-.5-2.36-.683.407-.475,1.1-1.318,1.608-2.013a3.168,3.168,0,0,0,.789-1.851,3.235,3.235,0,0,0-.539-1.6,10.294,10.294,0,0,0-2.663-2.916,5.078,5.078,0,0,0-2.7-1.088,1.949,1.949,0,0,0-1.543.768c-.486.656-.962,1.354-1.38,2.006-.338-.531-.928-1.435-1.443-2.127a2.715,2.715,0,0,0-2.276-1.364,9.152,9.152,0,0,0-4.563,1.721c-.81.584-2.033,1.559-2.033,2.747a1.849,1.849,0,0,0,.421,1.131c.477.666,1,1.331,1.491,1.926-.6.159-1.662.428-2.492.692-1.63.528-2.306,1.249-2.306,3.387a9.787,9.787,0,0,0,.527,3.147c.4,1.233,1.257,3.365,3.233,2.717.78-.252,1.582-.534,2.317-.817-.043.626-.1,1.232-.1,2.09,0,2.144.436,2.773,1.78,3.421a10.108,10.108,0,0,0,3.959.782c1.3,0,3.617-.155,3.617-2.208,0-1.287-.02-1.665-.068-2.436.577.229,1.6.62,2.431.886a4.549,4.549,0,0,0,1.391.264,2.655,2.655,0,0,0,1.948-1.087,9.585,9.585,0,0,0,2.371-5.448,1.946,1.946,0,0,0-1.407-2.049m-14.339-5.8a7.531,7.531,0,0,1,5.327-1.24,7.078,7.078,0,0,0-1.192,2.565,1.147,1.147,0,0,0-1.194-.764c-1,0-1.965.63-2.687.63a.617.617,0,0,1-.648-.6.752.752,0,0,1,.394-.595m-1.732,7.406c.011.683-.073,1.1-.5,1.233-.307.1-.652-.006-.823-.548a7.089,7.089,0,0,1,.448-5.329,9.151,9.151,0,0,0,2.041,1.924.459.459,0,0,0-.262.05c-1.038.327-.932,1.794-.909,2.671m5.513,6.127a7.062,7.062,0,0,1-4.99-2.091,16.567,16.567,0,0,0,1.612-.783,3.408,3.408,0,0,0,.825-.587.937.937,0,0,0-.05.312c0,1.076,1.437,1.427,2.284,1.685.671.2,1.1.428,1.1.858,0,.321-.2.607-.78.607m2.942-3.824a3.556,3.556,0,0,0-2.535-.663,4.294,4.294,0,0,0-2.708.634,1.991,1.991,0,0,0,.184-.9,5.165,5.165,0,0,0-.332-1.623,4.154,4.154,0,0,0-1.441-2.351A3.6,3.6,0,0,0,167.6,20a4.2,4.2,0,0,0,1.81-2.088c.107.559.544,1.2,1.662,2.01a4.232,4.232,0,0,0,2.567,1.058,3.525,3.525,0,0,0-1.426,2.176,6.378,6.378,0,0,0-.368,1.871,2.016,2.016,0,0,0,.141.817m3.48.889a7.959,7.959,0,0,1-2.628,2.242,15.58,15.58,0,0,0-.23-1.821,3.572,3.572,0,0,0-.323-.948,1,1,0,0,0,.3.142c1.03.338,1.816-.909,2.323-1.632.341-.474.646-.727.977-.727a.566.566,0,0,1,.6.526,5.314,5.314,0,0,1-1.015,2.217m-.953-5.952a2.114,2.114,0,0,0-.434.042,1.083,1.083,0,0,0,.442-.882,4.057,4.057,0,0,0-1.062-2.039,1.9,1.9,0,0,1-.494-1,.6.6,0,0,1,.575-.58.938.938,0,0,1,.535.209,6.974,6.974,0,0,1,2.808,4.63,11,11,0,0,0-2.37-.384M50.977,14.7H47.64a11.386,11.386,0,0,0-16.67,0H27.64a14.093,14.093,0,0,1,23.337,0" transform="translate(-15.425 -8.507)" fill="red"/>
        <path id="Trazado_251" data-name="Trazado 251" d="M61.794,16.3a5.912,5.912,0,0,0-3.907,1.644V12.184l-2.851,1.531V30.758h2.851V29.437a5.541,5.541,0,0,0,3.772,1.618c2.937,0,5.914-2.292,5.914-7.146,0-5.392-2.73-7.6-5.779-7.6m-.4,12.188a4.993,4.993,0,0,1-3.528-1.861V20.673a4.791,4.791,0,0,1,3.421-1.806c2.049,0,3.5,1.563,3.5,5.124,0,2.992-1.395,4.5-3.391,4.5M94.969,22.64v8.118H92.115v-8.01c0-2.857-1.078-3.882-2.912-3.882-1.861,0-3.019,1.32-3.019,3.614v8.279H83.332V16.6h2.851V17.95A4.649,4.649,0,0,1,89.9,16.306c3.289,0,5.069,1.827,5.069,6.334M75.135,16.3a8.966,8.966,0,0,0-4.907,1.267l1.078,2.1A7.131,7.131,0,0,1,75,18.783c1.727,0,2.881.864,2.881,2.4v1.052a8.372,8.372,0,0,0-3.26-.539c-3.209,0-5.778,1.429-5.778,4.584,0,3.478,2.758,4.773,5.05,4.773a5.821,5.821,0,0,0,3.989-1.7v1.4h2.854V21.05c0-3.209-2.446-4.745-5.6-4.745M77.88,26.74a4.671,4.671,0,0,1-3.53,1.806c-1.833,0-2.829-.944-2.829-2.345,0-1.295,1.239-2.1,3.019-2.1a7.517,7.517,0,0,1,3.341.619ZM102.974,16.3a8.97,8.97,0,0,0-4.908,1.267l1.08,2.1a7.131,7.131,0,0,1,3.693-.892c1.726,0,2.881.864,2.881,2.4v1.052a8.376,8.376,0,0,0-3.26-.539c-3.21,0-5.778,1.429-5.778,4.584,0,3.478,2.758,4.773,5.05,4.773a5.821,5.821,0,0,0,3.989-1.7v1.4h2.852V21.05c0-3.209-2.446-4.745-5.6-4.745m2.745,10.436a4.672,4.672,0,0,1-3.53,1.806c-1.834,0-2.829-.944-2.829-2.345,0-1.295,1.237-2.1,3.018-2.1a7.519,7.519,0,0,1,3.342.619Zm24.933-4.2v8.224H127.8v-8.01c0-2.857-.891-3.882-2.722-3.882-1.862,0-2.687,1.32-2.687,3.614v8.279h-2.854v-8.01c0-2.857-.852-3.882-2.685-3.882-1.862,0-2.83,1.32-2.83,3.614v8.279h-2.853V16.6h2.853V17.95a4.171,4.171,0,0,1,3.476-1.644,4.032,4.032,0,0,1,3.883,2.076,4.946,4.946,0,0,1,4.343-2.076c3.292,0,4.929,1.484,4.929,6.23m14.528.861c0-3.829-2.154-7.092-6.17-7.092-3.669,0-6.471,2.588-6.471,7.388,0,4.692,3.071,7.361,6.388,7.361a7.09,7.09,0,0,0,5.093-1.862l-1.539-1.815a5.883,5.883,0,0,1-3.392,1.133c-1.727,0-3.476-1.124-3.77-3.848H145.1c.027-.3.081-.754.081-1.266m-9.806-1.025c.241-2.264,1.587-3.559,3.447-3.559,2.29,0,3.419,1.618,3.554,3.559Zm22.01,8.388h-3.32L152.719,28.3c-.568-1.025-1.216-2.319-1.484-2.858-.243.539-1,1.915-1.539,2.886l-1.374,2.428h-3.146l4.345-7.336L145.473,16.6H148.7l1.107,2c.564,1.024,1.239,2.291,1.482,2.831.3-.539.971-1.887,1.51-2.886l1.077-1.942h3.21l-4.072,6.821ZM19.558,23.69a4.327,4.327,0,0,0,4.4,4.554A4.82,4.82,0,0,0,27.4,26.653l.061-.068,1.654,1.985-.045.052a6.286,6.286,0,0,1-5.028,2.4,7.629,7.629,0,0,1-5.208-1.908,7.171,7.171,0,0,1-2.207-5.429,7.156,7.156,0,0,1,2.207-5.427,7.626,7.626,0,0,1,5.208-1.9,6.284,6.284,0,0,1,5.028,2.4l.045.051-1.654,1.988-.061-.062a4.8,4.8,0,0,0-3.442-1.6,4.343,4.343,0,0,0-4.4,4.563M30.77,16.582h2.9v14.17h-2.9ZM45.052,27.671l.166-.107-.7,2.735-.031.02a4.484,4.484,0,0,1-2.57.649c-1.934-.031-3.226-1.522-3.226-3.7v-8H36.24V16.6h2.453V13.716l2.854-1.531V16.6h2.948v2.665H41.547v7.522c0,1.1.414,1.6,1.358,1.6a4.209,4.209,0,0,0,2.147-.713m2.4-11.089h2.908v14.17H47.454Z" transform="translate(-16.63 -8.104)" fill="#004785"/>
      </g>
    </g>
  </g>
</svg>
