<svg xmlns="http://www.w3.org/2000/svg" width="40.091" height="40.106" viewBox="0 0 40.091 40.106">
  <g id="Grupo_1581" data-name="Grupo 1581" transform="translate(-2841.75 -183.735)">
    <g id="Grupo_1576" data-name="Grupo 1576" transform="translate(2842 184)">
      <path id="Trazado_2040" data-name="Trazado 2040" d="M2869.219,223.591h-26.394a.825.825,0,0,1-.825-.825V184.825a.825.825,0,0,1,.825-.825h16.5a.825.825,0,0,1,0,1.65H2843.65v36.292h24.744v-7.423a.825.825,0,0,1,1.65,0v8.248A.825.825,0,0,1,2869.219,223.591Z" transform="translate(-2842 -184)" fill="#4b9e4f" stroke="#4b9e4f" stroke-width="0.5"/>
    </g>
    <g id="Grupo_1577" data-name="Grupo 1577" transform="translate(2868.394 193.898)">
      <path id="Trazado_2041" data-name="Trazado 2041" d="M2970.825,236.949a.825.825,0,0,1-.825-.825v-3.3a.825.825,0,0,1,1.65,0v3.3A.825.825,0,0,1,2970.825,236.949Z" transform="translate(-2970 -232)" fill="#4b9e4f" stroke="#4b9e4f" stroke-width="0.5"/>
    </g>
    <g id="Grupo_1578" data-name="Grupo 1578" transform="translate(2858.496 184)">
      <path id="Trazado_2042" data-name="Trazado 2042" d="M2932.723,195.547h-9.9a.825.825,0,0,1-.825-.825v-9.9a.825.825,0,0,1,1.408-.583l9.9,9.9a.825.825,0,0,1-.583,1.408Zm-9.073-1.65h7.082l-7.082-7.082Z" transform="translate(-2922 -184)" fill="#4b9e4f" stroke="#4b9e4f" stroke-width="0.5"/>
    </g>
    <g id="Grupo_1579" data-name="Grupo 1579" transform="translate(2856.847 193.898)">
      <path id="Trazado_2043" data-name="Trazado 2043" d="M2914.825,256.744a.825.825,0,0,1-.793-1.051l1.649-5.774a.827.827,0,0,1,.21-.357l17.321-17.321a.825.825,0,0,1,1.165,0l4.124,4.108a.825.825,0,0,1,0,1.169l-17.321,17.25a.823.823,0,0,1-.344.206l-5.774,1.737A.832.832,0,0,1,2914.825,256.744Zm2.384-6.166-1.177,4.117,4.131-1.242,16.588-16.52-2.954-2.943Z" transform="translate(-2914 -232)" fill="#4b9e4f" stroke="#4b9e4f" stroke-width="0.5"/>
    </g>
    <g id="Grupo_1580" data-name="Grupo 1580" transform="translate(2872.518 197.197)">
      <path id="Trazado_2044" data-name="Trazado 2044" d="M2994.949,253.757a.823.823,0,0,1-.582-.24l-4.124-4.108a.825.825,0,0,1,1.165-1.169l4.124,4.108a.825.825,0,0,1-.582,1.409Z" transform="translate(-2990 -248)" fill="#4b9e4f" stroke="#4b9e4f" stroke-width="0.5"/>
    </g>
  </g>
</svg>
