<svg xmlns="http://www.w3.org/2000/svg" width="441" height="59" viewBox="0 0 441 59"><defs><style>.a{fill:#46a52c;}.b{fill:#004f89;}.c{fill:#40516f;}.d{fill:#3f4f6b;}.e{fill:#015694;font-size:38px;font-family:MuseoSans-700, Museo Sans;font-weight:700;}.f{fill:none;stroke:#44516d;stroke-linecap:round;}</style></defs><g transform="translate(-81 -18)"><g transform="translate(-39.543 -192.063)"><g transform="translate(120.543 210.063)"><g transform="translate(0 0)"><g transform="translate(0.022)"><path class="a" d="M206.621,216.326a6.263,6.263,0,1,1-6.262-6.263,6.262,6.262,0,0,1,6.262,6.263" transform="translate(-181.548 -210.063)"/><path class="a" d="M206.621,301.153a6.263,6.263,0,1,1-6.262-6.263,6.261,6.261,0,0,1,6.262,6.263" transform="translate(-181.548 -280.394)"/><path class="a" d="M206.621,385.98a6.263,6.263,0,1,1-6.262-6.262,6.263,6.263,0,0,1,6.262,6.262" transform="translate(-181.548 -350.726)"/><path class="a" d="M130.069,253.392a6.265,6.265,0,1,1-8.559,2.3,6.271,6.271,0,0,1,8.559-2.3" transform="translate(-120.67 -245.292)"/><path class="a" d="M276.994,338.222a6.265,6.265,0,1,1-8.559,2.292,6.267,6.267,0,0,1,8.559-2.292" transform="translate(-242.487 -315.624)"/><path class="a" d="M123.9,338.231a6.265,6.265,0,1,1-2.294,8.558,6.265,6.265,0,0,1,2.294-8.558" transform="translate(-120.752 -315.633)"/><path class="a" d="M270.827,253.4a6.264,6.264,0,1,1-2.292,8.556,6.264,6.264,0,0,1,2.292-8.556" transform="translate(-242.57 -245.293)"/><g transform="translate(42.528)"><path class="b" d="M373.5,240.612s4.356,4.242,10.012,4.242c3.055,0,5.826-1.585,5.826-4.864,0-7.185-18.95-5.941-18.95-18.272,0-6.674,5.77-11.652,13.463-11.652,7.918,0,11.991,4.3,11.991,4.3l-3.167,5.939a14.663,14.663,0,0,0-8.88-3.506c-3.4,0-6.054,1.978-6.054,4.808,0,7.126,18.894,5.372,18.894,18.214,0,6.391-4.865,11.766-13.237,11.766a19.441,19.441,0,0,1-13.859-5.488Z" transform="translate(-369.537 -210.066)"/><path class="b" d="M563.057,210.067c11.822,0,20.759,8.994,20.759,20.476,0,11.821-8.938,21.043-20.759,21.043s-20.76-9.221-20.76-21.043c0-11.482,8.938-20.476,20.76-20.476m0,34.843c7.353,0,13.236-6.108,13.236-14.367,0-7.919-5.883-13.8-13.236-13.8s-13.237,5.882-13.237,13.8c0,8.259,5.883,14.367,13.237,14.367" transform="translate(-512.774 -210.066)"/><path class="b" d="M820.468,210.063c9.787,0,14.821,5.488,14.821,5.488l-3.51,5.43a17.69,17.69,0,0,0-10.97-4.243c-8.487,0-13.463,6.334-13.463,13.8,0,7.636,5.146,14.367,13.519,14.367,6.958,0,11.652-5.09,11.652-5.09l3.848,5.261a21.618,21.618,0,0,1-15.784,6.505c-12.273,0-20.759-9.108-20.759-20.93a20.186,20.186,0,0,1,20.646-20.59" transform="translate(-726.292 -210.063)"/></g></g><g transform="translate(0 48.643)"><path class="c" d="M122.054,494.71h1.413l-1.281,6.56h3.362l-.252,1.216h-4.753Z" transform="translate(-120.543 -494.71)"/><path class="c" d="M154.624,496.953h1.391l-1.084,5.586h-1.38Zm1.325-2.179h1.49l-1.446,1.489h-1.172Z" transform="translate(-147.91 -494.763)"/><path class="c" d="M174.337,496.769a1.71,1.71,0,0,1,1.545.767h.022a2.7,2.7,0,0,1,.044-.34l.482-2.486h1.391l-1.511,7.776h-1.314l.088-.416c.044-.23.1-.416.1-.416h-.022a2.194,2.194,0,0,1-1.8.964,2.063,2.063,0,0,1-2.125-2.333A3.292,3.292,0,0,1,174.337,496.769Zm-.569,4.676a2.116,2.116,0,0,0,1.774-2.234c0-.679-.329-1.249-1.1-1.249a2.047,2.047,0,0,0-1.8,2.223A1.107,1.107,0,0,0,173.768,501.445Z" transform="translate(-162.575 -494.71)"/><path class="c" d="M213.758,506.759a1.992,1.992,0,0,1,2.234,2.114,4.1,4.1,0,0,1-.2,1.073h-3.844a1.4,1.4,0,0,0-.011.208,1.245,1.245,0,0,0,1.38,1.27,3.367,3.367,0,0,0,1.73-.614l.373,1.063a3.909,3.909,0,0,1-2.179.734,2.42,2.42,0,0,1-2.716-2.4A3.3,3.3,0,0,1,213.758,506.759Zm.843,2.234a1.562,1.562,0,0,0,.022-.241.843.843,0,0,0-.887-.92,1.707,1.707,0,0,0-1.566,1.161Z" transform="translate(-195.15 -504.7)"/><path class="c" d="M246.412,507.156h1.336l-.186.964c-.044.208-.11.405-.11.405h.011a2.4,2.4,0,0,1,1.993-1.446,2.656,2.656,0,0,1,.328.022l-.274,1.369a2.214,2.214,0,0,0-.328-.022,2.6,2.6,0,0,0-2.081,2.311l-.384,1.982h-1.391Z" transform="translate(-224.004 -504.965)"/><path class="c" d="M274.454,506.759a1.992,1.992,0,0,1,2.234,2.114,4.1,4.1,0,0,1-.2,1.073h-3.844a1.375,1.375,0,0,0-.011.208,1.245,1.245,0,0,0,1.38,1.27,3.367,3.367,0,0,0,1.73-.614l.373,1.063a3.91,3.91,0,0,1-2.18.734,2.419,2.419,0,0,1-2.716-2.4A3.3,3.3,0,0,1,274.454,506.759Zm.843,2.234a1.541,1.541,0,0,0,.022-.241.843.843,0,0,0-.887-.92,1.706,1.706,0,0,0-1.566,1.161Z" transform="translate(-245.474 -504.7)"/><path class="c" d="M304.953,510.9a2.23,2.23,0,0,0,1.489.559c.427,0,.909-.2.909-.6,0-.712-2.344-.7-2.344-2.333a2.013,2.013,0,0,1,2.212-1.763,2.925,2.925,0,0,1,1.938.635l-.635.953a1.9,1.9,0,0,0-1.3-.438c-.405,0-.909.175-.909.6,0,.679,2.355.679,2.355,2.344,0,1.04-.953,1.753-2.224,1.753a3.324,3.324,0,0,1-2.212-.811Z" transform="translate(-272.84 -504.7)"/><path class="c" d="M354.44,506.759a1.992,1.992,0,0,1,2.234,2.114,4.092,4.092,0,0,1-.2,1.073h-3.844a1.4,1.4,0,0,0-.011.208,1.245,1.245,0,0,0,1.38,1.27,3.367,3.367,0,0,0,1.73-.614l.372,1.063a3.91,3.91,0,0,1-2.18.734,2.42,2.42,0,0,1-2.716-2.4A3.3,3.3,0,0,1,354.44,506.759Zm.843,2.234a1.551,1.551,0,0,0,.022-.241.843.843,0,0,0-.887-.92,1.706,1.706,0,0,0-1.566,1.161Z" transform="translate(-311.791 -504.7)"/><path class="c" d="M387.1,506.89h1.347l-.1.5c-.055.274-.142.548-.142.548h.022a2.637,2.637,0,0,1,2.125-1.183c.986,0,1.686.449,1.686,1.522a4.583,4.583,0,0,1-.1.723l-.668,3.472h-1.391l.635-3.253a3.333,3.333,0,0,0,.066-.515.614.614,0,0,0-.7-.679,2.259,2.259,0,0,0-1.993,1.927l-.482,2.519h-1.391Z" transform="translate(-340.647 -504.7)"/><path class="c" d="M436.837,502.486l4.173-7.776h1.6l1.194,7.776h-1.413l-.274-1.993h-2.727l-1.041,1.993ZM442,499.343l-.3-2.081c-.055-.438-.088-1.2-.088-1.2h-.022s-.3.778-.525,1.2l-1.106,2.081Z" transform="translate(-382.786 -494.71)"/><path class="c" d="M480.885,510.9a2.229,2.229,0,0,0,1.489.559c.427,0,.909-.2.909-.6,0-.712-2.344-.7-2.344-2.333a2.013,2.013,0,0,1,2.212-1.763,2.927,2.927,0,0,1,1.939.635l-.635.953a1.906,1.906,0,0,0-1.3-.438c-.405,0-.909.175-.909.6,0,.679,2.354.679,2.354,2.344,0,1.04-.953,1.753-2.223,1.753a3.324,3.324,0,0,1-2.212-.811Z" transform="translate(-418.708 -504.7)"/><path class="c" d="M514.671,506.759a1.992,1.992,0,0,1,2.234,2.114,4.1,4.1,0,0,1-.2,1.073h-3.844a1.4,1.4,0,0,0-.011.208,1.245,1.245,0,0,0,1.38,1.27,3.367,3.367,0,0,0,1.731-.614l.373,1.063a3.91,3.91,0,0,1-2.18.734,2.419,2.419,0,0,1-2.716-2.4A3.3,3.3,0,0,1,514.671,506.759Zm.843,2.234a1.539,1.539,0,0,0,.022-.241.843.843,0,0,0-.887-.92,1.706,1.706,0,0,0-1.566,1.161Z" transform="translate(-444.641 -504.7)"/><path class="c" d="M545.17,510.9a2.23,2.23,0,0,0,1.49.559c.427,0,.909-.2.909-.6,0-.712-2.344-.7-2.344-2.333a2.013,2.013,0,0,1,2.212-1.763,2.926,2.926,0,0,1,1.939.635l-.635.953a1.905,1.905,0,0,0-1.3-.438c-.406,0-.909.175-.909.6,0,.679,2.355.679,2.355,2.344,0,1.04-.953,1.753-2.223,1.753a3.324,3.324,0,0,1-2.212-.811Z" transform="translate(-472.007 -504.7)"/><path class="c" d="M579.046,506.759a2.5,2.5,0,0,1,2.749,2.464,3.48,3.48,0,0,1-3.461,3.384,2.492,2.492,0,0,1-2.738-2.476A3.468,3.468,0,0,1,579.046,506.759Zm-.69,4.665a2.106,2.106,0,0,0,2.026-2.114,1.293,1.293,0,0,0-1.347-1.369A2.132,2.132,0,0,0,577,510.066,1.288,1.288,0,0,0,578.356,511.424Z" transform="translate(-497.833 -504.7)"/><path class="c" d="M616.094,507.156h1.336l-.186.964c-.044.208-.109.405-.109.405h.011a2.4,2.4,0,0,1,1.993-1.446,2.662,2.662,0,0,1,.329.022l-.274,1.369a2.216,2.216,0,0,0-.329-.022,2.6,2.6,0,0,0-2.081,2.311l-.383,1.982H615.01Z" transform="translate(-530.512 -504.965)"/><path class="c" d="M641.4,496.953h1.391l-1.084,5.586h-1.38Zm1.325-2.179h1.489l-1.446,1.489H641.6Z" transform="translate(-551.503 -494.763)"/><path class="c" d="M659.953,508.971h.208a1.941,1.941,0,0,0,.033-.307c0-.471-.263-.756-.9-.756a3.681,3.681,0,0,0-1.643.526l-.328-1.073a4.814,4.814,0,0,1,2.212-.6c1.019,0,2.048.427,2.048,1.719a3.453,3.453,0,0,1-.055.547l-.668,3.45h-1.282l.087-.471a2.771,2.771,0,0,1,.11-.405h-.022a2.3,2.3,0,0,1-1.818,1.008,1.5,1.5,0,0,1-1.654-1.424C656.284,509.4,658.475,508.971,659.953,508.971Zm-1.544,2.552a1.874,1.874,0,0,0,1.555-1.489l.021-.11h-.23c-.635,0-2.07.1-2.07,1.018C657.686,511.26,657.916,511.523,658.409,511.523Z" transform="translate(-564.732 -504.7)"/><path class="c" d="M710.032,494.71h4.457l-.23,1.216h-3.066l-.416,2.2h2.574l-.23,1.216h-2.585l-.613,3.143h-1.4Z" transform="translate(-608.043 -494.71)"/><path class="c" d="M742.291,496.9h1.391l-1.1,5.586h-1.38Zm.427-2.19h1.391l-.241,1.237h-1.391Z" transform="translate(-635.142 -494.71)"/><path class="c" d="M759.339,506.89h1.347l-.1.5c-.055.274-.142.548-.142.548h.022a2.637,2.637,0,0,1,2.124-1.183c.986,0,1.687.449,1.687,1.522a4.564,4.564,0,0,1-.1.723l-.668,3.472h-1.391l.635-3.253a3.293,3.293,0,0,0,.066-.515.614.614,0,0,0-.7-.679,2.26,2.26,0,0,0-1.993,1.927l-.482,2.519h-1.391Z" transform="translate(-649.277 -504.7)"/><path class="c" d="M800.189,508.971h.208a1.945,1.945,0,0,0,.033-.307c0-.471-.263-.756-.9-.756a3.68,3.68,0,0,0-1.643.526l-.329-1.073a4.817,4.817,0,0,1,2.213-.6c1.019,0,2.048.427,2.048,1.719a3.444,3.444,0,0,1-.055.547l-.668,3.45h-1.281l.088-.471a2.749,2.749,0,0,1,.109-.405h-.022a2.3,2.3,0,0,1-1.818,1.008,1.494,1.494,0,0,1-1.653-1.424C796.52,509.4,798.71,508.971,800.189,508.971Zm-1.544,2.552a1.874,1.874,0,0,0,1.555-1.489l.022-.11h-.23c-.635,0-2.07.1-2.07,1.018C797.922,511.26,798.151,511.523,798.644,511.523Z" transform="translate(-681.004 -504.7)"/><path class="c" d="M832.851,506.89H834.2l-.1.5c-.055.274-.142.548-.142.548h.022a2.637,2.637,0,0,1,2.124-1.183c.986,0,1.687.449,1.687,1.522a4.572,4.572,0,0,1-.1.723l-.668,3.472h-1.391l.635-3.253a3.294,3.294,0,0,0,.066-.515.614.614,0,0,0-.7-.679,2.26,2.26,0,0,0-1.993,1.927l-.482,2.519h-1.391Z" transform="translate(-710.228 -504.7)"/><path class="c" d="M875.094,506.759a2.8,2.8,0,0,1,2.169.821l-.734.876a2.051,2.051,0,0,0-1.369-.515,2.141,2.141,0,0,0-2.114,2.1,1.331,1.331,0,0,0,1.435,1.38,3.253,3.253,0,0,0,1.8-.712l.373,1.073a3.834,3.834,0,0,1-2.333.822,2.429,2.429,0,0,1-2.683-2.476A3.436,3.436,0,0,1,875.094,506.759Z" transform="translate(-743.281 -504.7)"/><path class="c" d="M907.134,496.9h1.391l-1.1,5.586h-1.38Zm.427-2.19h1.391l-.241,1.237H907.32Z" transform="translate(-771.816 -494.71)"/><path class="c" d="M926.972,506.759a1.992,1.992,0,0,1,2.234,2.114,4.1,4.1,0,0,1-.2,1.073h-3.844a1.39,1.39,0,0,0-.011.208,1.245,1.245,0,0,0,1.38,1.27,3.369,3.369,0,0,0,1.73-.614l.372,1.063a3.908,3.908,0,0,1-2.179.734,2.42,2.42,0,0,1-2.716-2.4A3.3,3.3,0,0,1,926.972,506.759Zm.843,2.234a1.564,1.564,0,0,0,.022-.241.843.843,0,0,0-.887-.92,1.706,1.706,0,0,0-1.566,1.161Z" transform="translate(-786.484 -504.7)"/><path class="c" d="M959.626,507.156h1.336l-.186.964c-.044.208-.11.405-.11.405h.011a2.4,2.4,0,0,1,1.993-1.446,2.652,2.652,0,0,1,.328.022l-.274,1.369a2.209,2.209,0,0,0-.329-.022,2.6,2.6,0,0,0-2.081,2.311l-.383,1.982h-1.391Z" transform="translate(-815.338 -504.965)"/><path class="c" d="M986.437,508.971h.208a1.939,1.939,0,0,0,.033-.307c0-.471-.262-.756-.9-.756a3.683,3.683,0,0,0-1.643.526l-.328-1.073a4.815,4.815,0,0,1,2.212-.6c1.019,0,2.048.427,2.048,1.719a3.4,3.4,0,0,1-.055.547l-.668,3.45h-1.281l.087-.471a2.758,2.758,0,0,1,.109-.405h-.021a2.3,2.3,0,0,1-1.818,1.008,1.5,1.5,0,0,1-1.654-1.424C982.768,509.4,984.959,508.971,986.437,508.971Zm-1.544,2.552a1.874,1.874,0,0,0,1.555-1.489l.022-.11h-.23c-.635,0-2.07.1-2.07,1.018C984.17,511.26,984.4,511.523,984.893,511.523Z" transform="translate(-835.424 -504.7)"/></g></g></g><g transform="translate(274.56 264.77)"><path class="d" d="M1027.453,537.079v-1.773h.754a1.292,1.292,0,0,1,.413.048.408.408,0,0,1,.206.17.51.51,0,0,1,.078.279.474.474,0,0,1-.117.33.564.564,0,0,1-.351.164.832.832,0,0,1,.192.149,2.008,2.008,0,0,1,.2.288l.217.346h-.428l-.259-.386a2.526,2.526,0,0,0-.189-.261.275.275,0,0,0-.108-.074.588.588,0,0,0-.18-.02h-.073v.74Zm.358-1.023h.265a1.369,1.369,0,0,0,.322-.022.192.192,0,0,0,.1-.075.23.23,0,0,0,.036-.133.212.212,0,0,0-.048-.144.219.219,0,0,0-.135-.07q-.044-.006-.261-.006h-.279Z" transform="translate(-1026.491 -534.433)"/><path class="d" d="M1023.581,530.2a1.76,1.76,0,1,0,1.76,1.759A1.76,1.76,0,0,0,1023.581,530.2Zm0,3.238a1.478,1.478,0,1,1,1.478-1.478A1.48,1.48,0,0,1,1023.581,533.436Z" transform="translate(-1021.822 -530.198)"/></g></g><text class="e" transform="translate(254 60)"><tspan x="0" y="0">Biblioteca SOC</tspan></text><line class="f" y1="58" transform="translate(246.5 18.5)"/></g></svg>