<svg xmlns="http://www.w3.org/2000/svg" width="45.698" height="39.182" viewBox="0 0 45.698 39.182">
  <path id="Trazado_2034" data-name="Trazado 2034" d="M117.759,143.64,96.193,124.6a1.036,1.036,0,0,0-.15-.087.917.917,0,0,0-.457-.19,1.2,1.2,0,0,0-.243-.032,1.185,1.185,0,0,0-.241.032,1.251,1.251,0,0,0-.234.06,1.218,1.218,0,0,0-.223.13,1.037,1.037,0,0,0-.15.087L72.929,143.64a1.283,1.283,0,0,0,1.7,1.924l3.568-3.149v15.591a5.478,5.478,0,0,0,5.471,5.472h23.356a5.479,5.479,0,0,0,5.472-5.472V142.414l3.566,3.149a1.283,1.283,0,0,0,1.7-1.924Zm-7.832,14.365a2.909,2.909,0,0,1-2.905,2.905H83.665a2.907,2.907,0,0,1-2.9-2.905V140.149l14.582-12.872,14.584,12.872Z" transform="translate(-72.495 -124.295)" fill="#4b9e4f"/>
</svg>
