<svg xmlns="http://www.w3.org/2000/svg" xmlns:xlink="http://www.w3.org/1999/xlink" width="234" height="98" viewBox="0 0 234 98">
  <defs>
    <filter id="Rect치ngulo_1380" x="0" y="0" width="234" height="98" filterUnits="userSpaceOnUse">
      <feOffset dy="3" input="SourceAlpha"/>
      <feGaussianBlur stdDeviation="3" result="blur"/>
      <feFlood flood-color="#add0fc"/>
      <feComposite operator="in" in2="blur"/>
      <feComposite in="SourceGraphic"/>
    </filter>
  </defs>
  <g id="Grupo_1566" data-name="Grupo 1566" transform="translate(-351 -604)">
    <g transform="matrix(1, 0, 0, 1, 351, 604)" filter="url(#Rect치ngulo_1380)">
      <rect id="Rect치ngulo_1380-2" data-name="Rect치ngulo 1380" width="216" height="80" rx="10" transform="translate(9 6)" fill="#f4f8fd"/>
    </g>
    <g id="Grupo_1565" data-name="Grupo 1565" transform="translate(392.129 629.25)">
      <path id="Trazado_2000" data-name="Trazado 2000" d="M143.59,19.725a13.564,13.564,0,0,1-.217,2.282,12.478,12.478,0,0,0-2.065-.109,11.81,11.81,0,0,0-1.956.109V32.33h-2.717V20.268a14.934,14.934,0,0,1,4.564-.652,16.071,16.071,0,0,1,2.391.109m-18.038,5.216h6.085c0-1.956-1.087-3.151-2.934-3.151s-2.934,1.087-3.151,3.151m8.584,2.173h-8.584c.326,2.173,1.63,3.151,4.021,3.151a11.363,11.363,0,0,0,4.238-.869,22.482,22.482,0,0,1-.435,2.391,9.314,9.314,0,0,1-3.912.761c-4.455,0-6.628-2.5-6.628-6.628,0-3.586,1.63-6.411,5.976-6.411,3.8,0,5.433,2.5,5.433,5.542a6.431,6.431,0,0,1-.109,2.065M118.054,29.5v-7.5a13.377,13.377,0,0,0-2.173-.217c-2.608,0-3.912,1.63-3.912,4.347,0,2.5.978,4.238,3.369,4.238a3.73,3.73,0,0,0,2.717-.869m2.717-14.126V32.33h-2.5l-.109-1.521a3.77,3.77,0,0,1-3.477,1.847c-3.26,0-5.325-2.282-5.325-6.411,0-4.238,2.282-6.628,6.737-6.628a10.766,10.766,0,0,1,1.956.217V15.813a7.9,7.9,0,0,1,2.717-.435m-13.583,8.8v8.15h-2.717V24.615c0-1.956-.652-2.825-3.26-2.825a13.314,13.314,0,0,0-2.065.217V32.33H96.43V20.268a21.676,21.676,0,0,1,4.89-.652c4.455,0,5.868,1.63,5.868,4.564M90.78,29.613V22.007a10.565,10.565,0,0,0-1.956-.109C86,21.9,84.8,23.637,84.8,26.245c0,2.5.978,4.238,3.369,4.238a3.965,3.965,0,0,0,2.608-.869M93.5,20.268V32.33H91l-.109-1.413a3.7,3.7,0,0,1-3.477,1.739c-3.26,0-5.325-2.282-5.325-6.411,0-4.238,2.282-6.628,6.737-6.628a12.476,12.476,0,0,1,4.673.652M79.153,30.374a5.881,5.881,0,0,0,2.065-.326l-.326,2.282a5.675,5.675,0,0,1-2.282.435c-2.608,0-4.238-1.2-4.238-4.129V15.813a11.8,11.8,0,0,1,2.717-.435v4.564h4.238a14.791,14.791,0,0,1-.217,2.282H77.088V28.2c0,1.521.761,2.173,2.065,2.173m-7.5-6.194v8.15H68.938V24.615c0-1.956-.652-2.825-3.26-2.825a13.314,13.314,0,0,0-2.065.217V32.33H60.9V20.268a21.676,21.676,0,0,1,4.89-.652c4.455,0,5.868,1.63,5.868,4.564m-16.3,5.433V22.007A10.565,10.565,0,0,0,53.4,21.9c-2.825,0-4.021,1.739-4.021,4.347,0,2.5.978,4.238,3.369,4.238a4.183,4.183,0,0,0,2.608-.869m2.608-9.345V32.33h-2.5l-.109-1.413a3.7,3.7,0,0,1-3.477,1.739c-3.26,0-5.325-2.282-5.325-6.411,0-4.238,2.282-6.628,6.737-6.628a12.476,12.476,0,0,1,4.673.652M33.731,31.787a7.813,7.813,0,0,1,.435-2.391,11.4,11.4,0,0,0,4.455.978c2.282,0,3.477-.761,3.477-2.173s-.978-2.065-3.26-3.043l-1.2-.543c-2.282-.978-3.8-2.282-3.8-4.781,0-2.717,1.956-4.564,5.868-4.564a14.719,14.719,0,0,1,4.455.652,11.839,11.839,0,0,1-.435,2.391,13.5,13.5,0,0,0-4.021-.652c-2.065,0-3.043.869-3.043,2.065,0,1.3.978,1.956,2.608,2.717l1.3.543c3.043,1.3,4.347,2.717,4.347,5,0,2.825-2.065,4.673-6.3,4.673a9.635,9.635,0,0,1-4.89-.869M21.452,19.942a5.168,5.168,0,0,0-.761-2.5l-4.021-6.954a4.8,4.8,0,0,1-.652-1.739l-.109.217a5.6,5.6,0,0,0,0,5.542l3.26,5.542a5.6,5.6,0,0,1,0,5.542l-.217.326A5.681,5.681,0,0,0,18.3,24.18l-2.934-5.107-1.847-3.26a4.8,4.8,0,0,1-.652-1.739l-.217.326a5.6,5.6,0,0,0,0,5.542h0l3.26,5.65a5.6,5.6,0,0,1,0,5.542l-.217.326a5.681,5.681,0,0,0-.652-1.739l-4.021-6.954a5.018,5.018,0,0,1-.761-2.825c-4.347,1.087-7.389,3.477-7.389,6.3,0,3.8,5.759,6.954,12.931,6.954s12.931-3.151,12.931-6.954c.109-2.825-2.934-5.216-7.28-6.3" transform="translate(0 0)" fill="red"/>
      <path id="Trazado_2001" data-name="Trazado 2001" d="M135.11,15.745v.869h.435c.435,0,.761-.109.761-.435s-.217-.435-.761-.435Zm1.63.435a.626.626,0,0,1-.652.652l.543,1.2h-.543l-.543-1.2H135v1.2h-.435V15.419h.978c.869.109,1.2.326,1.2.761Zm.326-.761a1.8,1.8,0,0,0-1.413-.543,2.066,2.066,0,0,0-1.413.543,1.856,1.856,0,0,0,0,2.825,1.8,1.8,0,0,0,1.413.543,1.863,1.863,0,0,0,1.956-1.956,1.415,1.415,0,0,0-.543-1.413Zm.217-.217a2.363,2.363,0,0,1,0,3.26,2.4,2.4,0,0,1-1.63.652,2.282,2.282,0,1,1,1.63-3.912Z" transform="translate(11.306 0.502)" fill="red"/>
    </g>
  </g>
</svg>
