<svg xmlns="http://www.w3.org/2000/svg" xmlns:xlink="http://www.w3.org/1999/xlink" width="234" height="98" viewBox="0 0 234 98">
  <defs>
    <filter id="Rectángulo_1379" x="0" y="0" width="234" height="98" filterUnits="userSpaceOnUse">
      <feOffset dy="3" input="SourceAlpha"/>
      <feGaussianBlur stdDeviation="3" result="blur"/>
      <feFlood flood-color="#add0fc"/>
      <feComposite operator="in" in2="blur"/>
      <feComposite in="SourceGraphic"/>
    </filter>
    <clipPath id="clip-path">
      <rect id="Rectángulo_1384" data-name="Rectángulo 1384" width="133.094" height="18.93" fill="none"/>
    </clipPath>
  </defs>
  <g id="Grupo_1569" data-name="Grupo 1569" transform="translate(-597 -604)">
    <g transform="matrix(1, 0, 0, 1, 597, 604)" filter="url(#Rectángulo_1379)">
      <rect id="Rectángulo_1379-2" data-name="Rectángulo 1379" width="216" height="80" rx="10" transform="translate(9 6)" fill="#f4f8fd"/>
    </g>
    <g id="Grupo_1568" data-name="Grupo 1568" transform="translate(642.443 629.936)">
      <g id="Grupo_1567" data-name="Grupo 1567" transform="translate(4.557 11.064)" clip-path="url(#clip-path)">
        <path id="Trazado_2002" data-name="Trazado 2002" d="M35.46,16.506a6.583,6.583,0,1,0,6.583,6.583,6.591,6.591,0,0,0-6.583-6.583m0,9.485a2.9,2.9,0,1,1,2.9-2.9,2.905,2.905,0,0,1-2.9,2.9" transform="translate(-3.119 -10.742)" fill="#dd0209"/>
        <path id="Trazado_2003" data-name="Trazado 2003" d="M49.645,17.019h-1.8V13.133H43.914v3.886h-1.8V20.58h1.8v8.978h3.934V20.58h1.8Z" transform="translate(-2.335 -10.941)" fill="#dd0209"/>
        <rect id="Rectángulo_1383" data-name="Rectángulo 1383" width="3.934" height="12.539" transform="translate(49.115 6.078)" fill="#dd0209"/>
        <path id="Trazado_2004" data-name="Trazado 2004" d="M52.908,11.064A2.192,2.192,0,1,0,55.1,13.256a2.2,2.2,0,0,0-2.192-2.192" transform="translate(-1.827 -11.064)" fill="#dd0209"/>
        <path id="Trazado_2005" data-name="Trazado 2005" d="M106.414,20.2a2.347,2.347,0,0,1,2.345,2.345v6.817h3.935V22c0-3.34-1.928-5.5-4.967-5.5a4.186,4.186,0,0,0-3.655,2.3V16.82h-3.936V29.359h3.936V22.542a2.346,2.346,0,0,1,2.343-2.345" transform="translate(1.097 -10.742)" fill="#dd0209"/>
        <path id="Trazado_2006" data-name="Trazado 2006" d="M126.229,29.663,121.394,23.4l4.5-6.274h-4.6L117.678,22.2V11.36h-3.935v18.3h3.935V24.495l3.966,5.168Z" transform="translate(1.902 -11.046)" fill="#dd0209"/>
        <path id="Trazado_2007" data-name="Trazado 2007" d="M16.77,26.305a5.739,5.739,0,0,0,.4-2.31,4.675,4.675,0,0,0-1.117-3.185,9.329,9.329,0,0,0-4.268-2.272,7.167,7.167,0,0,1-1.118-.419,2.722,2.722,0,0,1-.834-.621,1.4,1.4,0,0,1-.358-1.016,1.484,1.484,0,0,1,.819-1.3,3.837,3.837,0,0,1,3.111.023,7.617,7.617,0,0,1,1.269.6l1.672-3.328a9.5,9.5,0,0,0-2.4-1.081,10.572,10.572,0,0,0-2.671-.337,7.148,7.148,0,0,0-2.5.413,5.662,5.662,0,0,0-1.911,1.243,5.889,5.889,0,0,0-1.271,1.9,6.121,6.121,0,0,0-.422,2.319,4.884,4.884,0,0,0,1.483,3.324,8.1,8.1,0,0,0,2.968,1.657c.518.2,1.1.374,1.466.52a5.222,5.222,0,0,1,1.077.549,1.716,1.716,0,0,1,.574.638,1.435,1.435,0,0,1,.123.8,1.631,1.631,0,0,1-.56,1.081,2.644,2.644,0,0,1-1.809.5,5.481,5.481,0,0,1-2.194-.527,15.724,15.724,0,0,1-1.783-.946L4.558,27.962a8.926,8.926,0,0,0,5.579,2.031A9.471,9.471,0,0,0,13.1,29.52a6.837,6.837,0,0,0,2.246-1.255,5.816,5.816,0,0,0,1.424-1.959" transform="translate(-4.557 -11.064)" fill="#dd0209"/>
        <path id="Trazado_2008" data-name="Trazado 2008" d="M128.27,24.5a2.192,2.192,0,1,0,2.191,2.191A2.192,2.192,0,0,0,128.27,24.5m0,3.942a1.75,1.75,0,1,1,1.75-1.751,1.75,1.75,0,0,1-1.75,1.751" transform="translate(2.632 -10.269)" fill="#dd0209"/>
        <path id="Trazado_2009" data-name="Trazado 2009" d="M128.188,27h-.351v.83H127.4V25.442h.917a.793.793,0,0,1,.8.792.781.781,0,0,1-.462.7l.5.9h-.518Zm-.351-.4h.5a.368.368,0,0,0,0-.733h-.5Z" transform="translate(2.71 -10.213)" fill="#dd0209"/>
        <path id="Trazado_2010" data-name="Trazado 2010" d="M26.766,24.907a2.9,2.9,0,1,1,0-3.637l2.608-2.608a6.566,6.566,0,0,0-4.868-2.155,6.585,6.585,0,1,0,0,13.164,6.569,6.569,0,0,0,4.868-2.155Z" transform="translate(-3.779 -10.742)" fill="#dd0209"/>
        <path id="Trazado_2011" data-name="Trazado 2011" d="M69.943,29.359V16.818H66.107v1.319l-.356-.318a4.793,4.793,0,0,0-3.3-1.313,6.592,6.592,0,0,0,0,13.165,4.793,4.793,0,0,0,3.3-1.313l.356-.318v1.319ZM63.06,26.05a2.962,2.962,0,1,1,2.961-2.961A2.965,2.965,0,0,1,63.06,26.05" transform="translate(-1.502 -10.742)" fill="#dd0209"/>
        <path id="Trazado_2012" data-name="Trazado 2012" d="M99.124,29.359V16.818H95.288v1.319l-.355-.318a4.8,4.8,0,0,0-3.3-1.313,6.592,6.592,0,0,0,0,13.165,4.8,4.8,0,0,0,3.3-1.313l.355-.318v1.319ZM92.241,26.05A2.962,2.962,0,1,1,95.2,23.089a2.965,2.965,0,0,1-2.961,2.961" transform="translate(0.224 -10.742)" fill="#dd0209"/>
        <path id="Trazado_2013" data-name="Trazado 2013" d="M74.933,29.663V28.345l.355.317a4.792,4.792,0,0,0,3.3,1.314,6.592,6.592,0,0,0,0-13.165,4.792,4.792,0,0,0-3.3,1.314l-.355.317V11.36H71.1v18.3Zm.085-6.27a2.962,2.962,0,1,1,2.962,2.962,2.966,2.966,0,0,1-2.962-2.962" transform="translate(-0.621 -11.046)" fill="#dd0209"/>
      </g>
    </g>
  </g>
</svg>
